<svg width="14" height="13" viewBox="0 0 14 13" fill="none" xmlns="http://www.w3.org/2000/svg">
<path d="M13 4.66654H3.66671V2.66654C3.66671 1.93121 4.26471 1.33321 5.00004 1.33321C5.73537 1.33321 6.33337 1.93121 6.33337 2.66654H7.66671C7.66671 1.19588 6.47071 -0.00012207 5.00004 -0.00012207C3.52937 -0.00012207 2.33337 1.19588 2.33337 2.66654V4.66654H1.00004C0.82323 4.66654 0.65366 4.73678 0.528636 4.86181C0.403612 4.98683 0.333374 5.1564 0.333374 5.33321V6.66654C0.333374 8.40388 1.44937 9.88188 3.00004 10.4332V12.6665H4.33337V10.6665H9.66671V12.6665H11V10.4332C12.5507 9.88188 13.6667 8.40388 13.6667 6.66654V5.33321C13.6667 5.1564 13.5965 4.98683 13.4714 4.86181C13.3464 4.73678 13.1769 4.66654 13 4.66654ZM12.3334 6.66654C12.3334 8.13721 11.1374 9.33321 9.66671 9.33321H4.33337C2.86271 9.33321 1.66671 8.13721 1.66671 6.66654V5.99988H12.3334V6.66654Z" fill="#D8AC45"/>
</svg>
