<svg width="13" height="13" viewBox="0 0 13 13" fill="none" xmlns="http://www.w3.org/2000/svg">
<path d="M11.5002 4.973V0.874878H10.2502V2.12488H2.75024V0.874878H1.50024V4.973C0.756494 5.40613 0.250244 6.203 0.250244 7.12488V9.62488C0.250244 9.79064 0.316092 9.94961 0.433302 10.0668C0.550513 10.184 0.709484 10.2499 0.875244 10.2499H1.50024V12.7499H2.75024V10.2499H10.2502V12.7499H11.5002V10.2499H12.1252C12.291 10.2499 12.45 10.184 12.5672 10.0668C12.6844 9.94961 12.7502 9.79064 12.7502 9.62488V7.12488C12.7502 6.203 12.2434 5.40613 11.5002 4.973ZM10.2502 3.37488V4.62488H7.12524V3.37488H10.2502ZM2.75024 3.37488H5.87524V4.62488H2.75024V3.37488ZM11.5002 8.99988H1.50024V7.12488C1.50024 6.4355 2.06087 5.87488 2.75024 5.87488H10.2502C10.9396 5.87488 11.5002 6.4355 11.5002 7.12488V8.99988Z" fill="#D8AC45"/>
</svg>
