<svg width="60" height="60" viewBox="0 0 60 60" fill="none" xmlns="http://www.w3.org/2000/svg">
<path d="M47.4995 5H22.4995C19.742 5 17.4995 7.2425 17.4995 10V23.965L5.73197 35.7325C5.38244 36.0821 5.14443 36.5275 5.04801 37.0124C4.95159 37.4973 5.0011 37.9999 5.19027 38.4566C5.37945 38.9134 5.6998 39.3038 6.11082 39.5785C6.52185 39.8532 7.00509 39.9999 7.49947 40V52.5C7.49947 53.163 7.76286 53.7989 8.2317 54.2678C8.70054 54.7366 9.33643 55 9.99947 55H49.9995C50.6625 55 51.2984 54.7366 51.7672 54.2678C52.2361 53.7989 52.4995 53.163 52.4995 52.5V10C52.4995 7.2425 50.257 5 47.4995 5ZM27.4995 50H12.4995V36.035L19.9995 28.535L27.4995 36.035V50ZM47.4995 50H32.4995V40C32.9944 40.0011 33.4785 39.8551 33.8903 39.5806C34.3021 39.3061 34.623 38.9154 34.8124 38.4582C35.0018 38.0009 35.051 37.4977 34.9539 37.0124C34.8568 36.5272 34.6177 36.0817 34.267 35.7325L22.4995 23.965V10H47.4995V50Z" fill="#D8AC45"/>
<path d="M27.5 15H32.5V20H27.5V15ZM37.5 15H42.5V20H37.5V15ZM37.5 25.0775H42.5V30H37.5V25.0775ZM37.5 35H42.5V40H37.5V35ZM17.5 37.5H22.5V42.5H17.5V37.5Z" fill="#D8AC45"/>
</svg>
