<svg width="62" height="65" viewBox="0 0 62 65" fill="none" xmlns="http://www.w3.org/2000/svg">
<g filter="url(#filter0_d)">
<path d="M4.75 52.5H57.25V56.25H4.75V52.5Z" fill="#D8AC45"/>
<path d="M51.625 20.6242C52.1223 20.6242 52.5992 20.4267 52.9508 20.075C53.3025 19.7234 53.5 19.2465 53.5 18.7492V13.1242C53.4998 12.7389 53.381 12.3629 53.1595 12.0476C52.9381 11.7322 52.6249 11.4927 52.2625 11.3617L31.6375 3.8617C31.2255 3.71277 30.7745 3.71277 30.3625 3.8617L9.7375 11.3617C9.37512 11.4927 9.0619 11.7322 8.84048 12.0476C8.61905 12.3629 8.50016 12.7389 8.5 13.1242V18.7492C8.5 19.2465 8.69754 19.7234 9.04918 20.075C9.40081 20.4267 9.87772 20.6242 10.375 20.6242H12.25V44.9992H8.5V48.7492H53.5V44.9992H49.75V20.6242H51.625ZM12.25 14.4367L31 7.6117L49.75 14.4367V16.8742H12.25V14.4367ZM34.75 44.9992H27.25V20.6242H34.75V44.9992ZM16 20.6242H23.5V44.9992H16V20.6242ZM46 44.9992H38.5V20.6242H46V44.9992Z" fill="#D8AC45"/>
</g>
<defs>
<filter id="filter0_d" x="-3" y="0" width="68" height="68" filterUnits="userSpaceOnUse" color-interpolation-filters="sRGB">
<feFlood flood-opacity="0" result="BackgroundImageFix"/>
<feColorMatrix in="SourceAlpha" type="matrix" values="0 0 0 0 0 0 0 0 0 0 0 0 0 0 0 0 0 0 127 0"/>
<feOffset dy="4"/>
<feGaussianBlur stdDeviation="2"/>
<feColorMatrix type="matrix" values="0 0 0 0 0 0 0 0 0 0 0 0 0 0 0 0 0 0 0.25 0"/>
<feBlend mode="normal" in2="BackgroundImageFix" result="effect1_dropShadow"/>
<feBlend mode="normal" in="SourceGraphic" in2="effect1_dropShadow" result="shape"/>
</filter>
</defs>
</svg>
