<svg width="72" height="54" viewBox="0 0 72 54" fill="none" xmlns="http://www.w3.org/2000/svg">
<path fill-rule="evenodd" clip-rule="evenodd" d="M67.5 54C67.5 54 72 54 72 49.5C72 45 67.5 31.5 49.5 31.5C31.5 31.5 27 45 27 49.5C27 54 31.5 54 31.5 54H67.5ZM31.599 49.5H67.401C67.4221 49.4975 67.4431 49.4945 67.464 49.491L67.5 49.482C67.491 48.294 66.7485 44.847 64.08 41.742C61.596 38.8305 57.231 36 49.5 36C41.7735 36 37.4085 38.835 34.92 41.742C32.2515 44.847 31.5045 48.2985 31.5 49.482C31.5329 49.4884 31.5659 49.4944 31.599 49.5ZM49.5 22.5C51.8869 22.5 54.1761 21.5518 55.864 19.864C57.5518 18.1761 58.5 15.8869 58.5 13.5C58.5 11.1131 57.5518 8.82387 55.864 7.13604C54.1761 5.44821 51.8869 4.5 49.5 4.5C47.1131 4.5 44.8239 5.44821 43.136 7.13604C41.4482 8.82387 40.5 11.1131 40.5 13.5C40.5 15.8869 41.4482 18.1761 43.136 19.864C44.8239 21.5518 47.1131 22.5 49.5 22.5ZM63 13.5C63 15.2728 62.6508 17.0283 61.9724 18.6662C61.2939 20.3041 60.2995 21.7923 59.0459 23.0459C57.7924 24.2995 56.3041 25.2939 54.6662 25.9724C53.0283 26.6508 51.2728 27 49.5 27C47.7272 27 45.9717 26.6508 44.3338 25.9724C42.6959 25.2939 41.2076 24.2995 39.9541 23.0459C38.7005 21.7923 37.7061 20.3041 37.0276 18.6662C36.3492 17.0283 36 15.2728 36 13.5C36 9.91958 37.4223 6.4858 39.9541 3.95406C42.4858 1.42232 45.9196 0 49.5 0C53.0804 0 56.5142 1.42232 59.0459 3.95406C61.5777 6.4858 63 9.91958 63 13.5ZM31.212 32.76C29.4119 32.1932 27.5564 31.8206 25.677 31.6485C24.621 31.5481 23.5608 31.4985 22.5 31.5C4.5 31.5 0 45 0 49.5C0 52.5015 1.4985 54 4.5 54H23.472C22.8049 52.5952 22.4722 51.0549 22.5 49.5C22.5 44.955 24.1965 40.311 27.405 36.432C28.4985 35.109 29.772 33.8715 31.212 32.76ZM22.14 36C14.634 36.09 10.3725 38.88 7.92 41.742C5.2335 44.865 4.5 48.3255 4.5 49.5H18C18 44.7975 19.4535 40.113 22.14 36ZM6.75 15.75C6.75 12.1696 8.17232 8.7358 10.7041 6.20406C13.2358 3.67232 16.6696 2.25 20.25 2.25C23.8304 2.25 27.2642 3.67232 29.7959 6.20406C32.3277 8.7358 33.75 12.1696 33.75 15.75C33.75 19.3304 32.3277 22.7642 29.7959 25.2959C27.2642 27.8277 23.8304 29.25 20.25 29.25C16.6696 29.25 13.2358 27.8277 10.7041 25.2959C8.17232 22.7642 6.75 19.3304 6.75 15.75ZM20.25 6.75C17.8631 6.75 15.5739 7.69821 13.886 9.38604C12.1982 11.0739 11.25 13.3631 11.25 15.75C11.25 18.1369 12.1982 20.4261 13.886 22.114C15.5739 23.8018 17.8631 24.75 20.25 24.75C22.6369 24.75 24.9261 23.8018 26.614 22.114C28.3018 20.4261 29.25 18.1369 29.25 15.75C29.25 13.3631 28.3018 11.0739 26.614 9.38604C24.9261 7.69821 22.6369 6.75 20.25 6.75Z" fill="#D8AC45"/>
</svg>
