<svg width="47" height="47" viewBox="0 0 47 47" fill="none" xmlns="http://www.w3.org/2000/svg">
<path d="M37.208 3.9165H17.6247C15.4646 3.9165 13.708 5.67313 13.708 7.83317V18.7724L4.49012 27.9903C4.21633 28.2642 4.02988 28.6131 3.95435 28.9929C3.87883 29.3727 3.91761 29.7664 4.06579 30.1242C4.21398 30.482 4.46492 30.7878 4.78689 31.003C5.10886 31.2182 5.4874 31.3331 5.87466 31.3332V41.1248C5.87466 41.6442 6.08099 42.1423 6.44825 42.5096C6.81551 42.8769 7.31362 43.0832 7.833 43.0832H39.1663C39.6857 43.0832 40.1838 42.8769 40.5511 42.5096C40.9183 42.1423 41.1247 41.6442 41.1247 41.1248V7.83317C41.1247 5.67313 39.368 3.9165 37.208 3.9165ZM21.5413 39.1665H9.79133V28.2273L15.6663 22.3523L21.5413 28.2273V39.1665ZM37.208 39.1665H25.458V31.3332C25.8457 31.334 26.2249 31.2197 26.5475 31.0047C26.87 30.7896 27.1215 30.4836 27.2698 30.1254C27.4181 29.7672 27.4567 29.3731 27.3807 28.9929C27.3046 28.6128 27.1173 28.2638 26.8425 27.9903L17.6247 18.7724V7.83317H37.208V39.1665Z" fill="#D8AC45"/>
<path d="M21.5418 11.75H25.4585V15.6667H21.5418V11.75ZM29.3752 11.75H33.2918V15.6667H29.3752V11.75ZM29.3752 19.644H33.2918V23.5H29.3752V19.644ZM29.3752 27.4167H33.2918V31.3333H29.3752V27.4167ZM13.7085 29.375H17.6252V33.2917H13.7085V29.375Z" fill="#D8AC45"/>
</svg>
