<svg width="17" height="17" viewBox="0 0 17 17" fill="none" xmlns="http://www.w3.org/2000/svg">
<path d="M15.1677 4.72217H1.83211C1.59666 4.72217 1.37085 4.8157 1.20436 4.98219C1.03787 5.14868 0.944336 5.37449 0.944336 5.60995V14.2233C0.944336 14.4587 1.03787 14.6845 1.20436 14.851C1.37085 15.0175 1.59666 15.1111 1.83211 15.1111H15.1677C15.4031 15.1111 15.6289 15.0175 15.7954 14.851C15.9619 14.6845 16.0554 14.4587 16.0554 14.2233V5.60995C16.0554 5.37449 15.9619 5.14868 15.7954 4.98219C15.6289 4.8157 15.4031 4.72217 15.1677 4.72217ZM15.111 14.1666H1.88878V5.66661H15.111V14.1666Z" fill="white"/>
<path d="M4.04215 9.1849C4.32235 9.1849 4.59624 9.10181 4.82921 8.94615C5.06218 8.79048 5.24376 8.56923 5.35098 8.31037C5.45821 8.0515 5.48626 7.76666 5.4316 7.49185C5.37694 7.21705 5.24201 6.96462 5.04389 6.7665C4.84576 6.56837 4.59334 6.43345 4.31853 6.37878C4.04373 6.32412 3.75888 6.35218 3.50002 6.4594C3.24116 6.56662 3.01991 6.7482 2.86424 6.98117C2.70857 7.21414 2.62549 7.48804 2.62549 7.76823C2.62549 8.14395 2.77474 8.50429 3.04042 8.76996C3.3061 9.03564 3.66643 9.1849 4.04215 9.1849ZM4.04215 7.01267C4.19234 7.00892 4.34023 7.05002 4.46694 7.13072C4.59365 7.21143 4.69342 7.32808 4.75352 7.46576C4.81361 7.60345 4.83129 7.75592 4.80431 7.90371C4.77732 8.0515 4.7069 8.18788 4.60202 8.29545C4.49715 8.40301 4.36259 8.47687 4.21553 8.50759C4.06848 8.5383 3.9156 8.52449 3.77644 8.4679C3.63727 8.41131 3.51814 8.31452 3.43425 8.18989C3.35037 8.06526 3.30554 7.91846 3.30549 7.76823C3.30543 7.57107 3.38243 7.3817 3.52007 7.24054C3.6577 7.09938 3.84506 7.0176 4.04215 7.01267Z" fill="white"/>
<path d="M3.73041 13.2222L6.56374 10.3889L8.06541 11.8906L6.73374 13.2222H7.67819L11.201 9.69946L14.1665 12.6414V11.697L11.4276 8.97224C11.3648 8.90995 11.28 8.875 11.1915 8.875C11.1031 8.875 11.0182 8.90995 10.9554 8.97224L8.51874 11.4089L6.78569 9.68057C6.72289 9.61828 6.63803 9.58333 6.54958 9.58333C6.46113 9.58333 6.37626 9.61828 6.31347 9.68057L2.79541 13.2222H3.73041Z" fill="white"/>
<path d="M14.2327 1.41656C14.2327 1.29132 14.183 1.17121 14.0944 1.08265C14.0059 0.994088 13.8858 0.944336 13.7605 0.944336H3.37164C3.2464 0.944336 3.12628 0.994088 3.03772 1.08265C2.94917 1.17121 2.89941 1.29132 2.89941 1.41656V1.88878H14.2327V1.41656Z" fill="white"/>
<path d="M15.1675 3.30572C15.1675 3.18048 15.1178 3.06037 15.0292 2.97181C14.9407 2.88325 14.8206 2.8335 14.6953 2.8335H2.41753C2.29229 2.8335 2.17218 2.88325 2.08362 2.97181C1.99506 3.06037 1.94531 3.18048 1.94531 3.30572V3.77794H15.1675V3.30572Z" fill="white"/>
</svg>
