<svg width="24" height="24" viewBox="0 0 24 24" fill="none" xmlns="http://www.w3.org/2000/svg">
<path d="M22.0002 9C21.2242 9.01944 20.4573 8.82945 19.7802 8.45C19.2393 8.13961 18.6235 7.98393 18.0002 8V7C18.7761 6.98056 19.543 7.17055 20.2202 7.55C20.761 7.86039 21.3768 8.01607 22.0002 8V9ZM22.0002 6C21.3768 6.01607 20.761 5.86039 20.2202 5.55C19.543 5.17055 18.7761 4.98056 18.0002 5V6C18.6235 5.98393 19.2393 6.13961 19.7802 6.45C20.4573 6.82945 21.2242 7.01944 22.0002 7V6ZM22.0002 10C21.3768 10.0161 20.761 9.86039 20.2202 9.55C19.543 9.17055 18.7761 8.98056 18.0002 9V10C18.6235 9.98393 19.2393 10.1396 19.7802 10.45C20.4573 10.8294 21.2242 11.0194 22.0002 11V10ZM10.0002 12.73C12.3615 12.2733 14.6979 11.6959 17.0002 11V4C17.0002 4 10.5002 2 7.50016 2C6.16465 2.00376 4.87614 2.49332 3.87508 3.37732C2.87402 4.26132 2.2288 5.47936 2.05983 6.80414C1.89087 8.12891 2.2097 9.46991 2.95684 10.5769C3.70397 11.6838 4.82835 12.4811 6.12016 12.82L7.00016 19H8.00016C8.04015 19.4766 8.19353 19.9368 8.4475 20.3421C8.70147 20.7474 9.04868 21.0861 9.46016 21.33C9.92409 21.6058 10.3094 21.9962 10.579 22.4638C10.8487 22.9313 10.9937 23.4603 11.0002 24H12.0002C11.9956 23.3111 11.8184 22.6343 11.4847 22.0316C11.1511 21.4289 10.6716 20.9195 10.0902 20.55C9.39016 20 9.00016 19.63 9.00016 19H10.0002V12.73ZM7.50016 10C7.0057 10 6.52235 9.85338 6.11123 9.57867C5.70011 9.30397 5.37968 8.91352 5.19046 8.45671C5.00124 7.99989 4.95173 7.49723 5.04819 7.01227C5.14466 6.52732 5.38276 6.08186 5.73239 5.73223C6.08202 5.3826 6.52748 5.1445 7.01243 5.04804C7.49738 4.95157 8.00005 5.00108 8.45687 5.1903C8.91368 5.37952 9.30413 5.69995 9.57883 6.11107C9.85353 6.5222 10.0002 7.00555 10.0002 7.5C10.0002 8.16304 9.73676 8.79893 9.26792 9.26777C8.79908 9.73661 8.1632 10 7.50016 10Z" fill="#D8AC45"/>
</svg>
