<svg width="27" height="25" viewBox="0 0 27 25" fill="none" xmlns="http://www.w3.org/2000/svg">
<path fill-rule="evenodd" clip-rule="evenodd" d="M1.08455 12.6295C0.603313 11.6607 0.0744324 10.8545 0.0744324 9.58887C0.0744324 8.35918 0.433372 7.47324 1.14014 6.95606C1.99937 6.33106 4.01325 6.47793 4.96778 6.59512C5.10437 6.52949 5.28543 6.28418 5.44743 6.28418L15.8631 7.23262C17.0225 7.46856 18.174 8.6123 18.174 8.6123L25.3496 16.0389C25.3496 16.6232 25.2607 17.1201 24.2871 17.1201L6.35273 17.0982C6.35273 17.0982 7.16114 12.4998 4.76449 12.4998V7.60449C3.91161 7.5373 2.20267 7.49668 1.7532 7.82793C1.33867 8.13106 1.12902 8.72168 1.12902 9.58887C1.12902 10.6014 1.53243 11.4139 1.99779 12.3514C3.01584 14.3998 4.1689 16.3326 1.5642 21.3951C1.4689 21.5764 1.28625 21.6826 1.09567 21.6826C1.01061 21.6822 0.927025 21.6607 0.852667 21.6201C0.727114 21.5526 0.633488 21.4393 0.591909 21.3047C0.550333 21.17 0.564119 21.0246 0.630312 20.8998C2.98408 16.3232 2.00414 14.7389 1.05437 12.8326L1.08455 12.6295ZM6.23043 11.1545C6.73232 11.1545 9.6372 11.3873 9.6372 11.3732V10.5076C9.6351 10.3771 9.65921 10.2474 9.70816 10.126C9.75711 10.0046 9.82993 9.89396 9.92244 9.80033C10.015 9.7067 10.1253 9.63196 10.2473 9.58039C10.3692 9.52882 10.5003 9.50143 10.633 9.4998H11.5812C11.714 9.50123 11.8453 9.52846 11.9674 9.57994C12.0895 9.63142 12.2001 9.70613 12.2928 9.79978C12.3855 9.89343 12.4584 10.0042 12.5075 10.1256C12.5565 10.2471 12.5807 10.3769 12.5786 10.5076V11.3732C12.5786 11.4904 19.3048 12.4373 19.3048 12.4373L17.0241 9.60137C17.0241 9.60137 16.3157 8.64668 15.4819 8.64668L7.00073 7.68418C6.57349 7.68418 6.23043 8.10918 6.23043 8.63887V11.1545Z" fill="#D8AC45"/>
</svg>
