<svg width="22" height="22" viewBox="0 0 22 22" fill="none" xmlns="http://www.w3.org/2000/svg">
<path d="M17.875 16.5034H4.125C3.76044 16.5031 3.41091 16.3581 3.15313 16.1003C2.89535 15.8425 2.75036 15.493 2.75 15.1284V5.50342C2.75036 5.13886 2.89535 4.78933 3.15313 4.53155C3.41091 4.27376 3.76044 4.12878 4.125 4.12842H17.875C18.2396 4.12878 18.5891 4.27376 18.8469 4.53155C19.1047 4.78933 19.2496 5.13886 19.25 5.50342V15.1284C19.2495 15.4929 19.1044 15.8423 18.8467 16.1001C18.5889 16.3578 18.2395 16.5029 17.875 16.5034ZM4.125 5.50342V15.1284H17.875V5.50342H4.125Z" fill="#D8AC45"/>
<path d="M1.375 17.8784H20.625V19.2534H1.375V17.8784Z" fill="#D8AC45"/>
</svg>
