<svg width="13" height="16" viewBox="0 0 13 16" fill="none" xmlns="http://www.w3.org/2000/svg">
<path d="M6.33366 9.49984C8.08008 9.49984 9.50033 8.07959 9.50033 6.33317C9.50033 4.58675 8.08008 3.1665 6.33366 3.1665C4.58724 3.1665 3.16699 4.58675 3.16699 6.33317C3.16699 8.07959 4.58724 9.49984 6.33366 9.49984ZM6.33366 4.74984C7.20687 4.74984 7.91699 5.45996 7.91699 6.33317C7.91699 7.20638 7.20687 7.9165 6.33366 7.9165C5.46045 7.9165 4.75033 7.20638 4.75033 6.33317C4.75033 5.45996 5.46045 4.74984 6.33366 4.74984Z" fill="white"/>
<path d="M5.87424 15.6861C6.00822 15.7818 6.16876 15.8332 6.3334 15.8332C6.49805 15.8332 6.65858 15.7818 6.79257 15.6861C7.03324 15.5159 12.6897 11.4317 12.6667 6.33333C12.6667 2.84129 9.82544 0 6.3334 0C2.84136 0 6.96965e-05 2.84129 6.96965e-05 6.32938C-0.0228886 11.4317 5.63357 15.5159 5.87424 15.6861ZM6.3334 1.58333C8.95303 1.58333 11.0834 3.71371 11.0834 6.33729C11.1 9.85071 7.60957 13.0055 6.3334 14.0402C5.05803 13.0047 1.56678 9.84912 1.5834 6.33333C1.5834 3.71371 3.71378 1.58333 6.3334 1.58333Z" fill="white"/>
</svg>
