<svg width="20" height="16" viewBox="0 0 20 16" fill="none" xmlns="http://www.w3.org/2000/svg">
<g clip-path="url(#clip0)">
<path d="M19.8409 4.84C14.3043 -0.280937 5.69341 -0.279063 0.159036 4.84C-0.0490891 5.0325 -0.0531516 5.35844 0.148098 5.55813L1.2181 6.61969C1.40997 6.81031 1.71872 6.81438 1.9181 6.63156C6.4781 2.45406 13.5212 2.45312 18.0822 6.63156C18.2815 6.81438 18.5903 6.81 18.7822 6.61969L19.8522 5.55813C20.0531 5.35844 20.049 5.0325 19.8409 4.84ZM9.99997 11C8.89529 11 7.99997 11.8953 7.99997 13C7.99997 14.1047 8.89529 15 9.99997 15C11.1047 15 12 14.1047 12 13C12 11.8953 11.1047 11 9.99997 11ZM16.3334 8.38781C12.7315 5.2025 7.26435 5.20594 3.66654 8.38781C3.45091 8.57844 3.44404 8.90937 3.64872 9.11125L4.72497 10.1734C4.91247 10.3584 5.21435 10.3709 5.41404 10.1984C8.03747 7.93062 11.9684 7.93563 14.5856 10.1984C14.7853 10.3709 15.0872 10.3587 15.2747 10.1734L16.3509 9.11125C16.5559 8.90937 16.5487 8.57812 16.3334 8.38781Z" fill="#D8AC45"/>
</g>
<defs>
<clipPath id="clip0">
<rect width="20" height="16" fill="white"/>
</clipPath>
</defs>
</svg>
