<svg width="29" height="20" viewBox="0 0 29 20" fill="none" xmlns="http://www.w3.org/2000/svg">
<path fill-rule="evenodd" clip-rule="evenodd" d="M25.7365 1.875H2.83663C2.60303 1.875 2.37901 1.9606 2.21383 2.11298C2.04866 2.26535 1.95586 2.47201 1.95586 2.6875V17.3125C1.95586 17.528 2.04866 17.7347 2.21383 17.887C2.37901 18.0394 2.60303 18.125 2.83663 18.125H25.7365C25.9701 18.125 26.1941 18.0394 26.3593 17.887C26.5244 17.7347 26.6172 17.528 26.6172 17.3125V2.6875C26.6172 2.47201 26.5244 2.26535 26.3593 2.11298C26.1941 1.9606 25.9701 1.875 25.7365 1.875ZM2.83663 0.25C2.13585 0.25 1.46377 0.506807 0.968245 0.963927C0.472719 1.42105 0.194336 2.04103 0.194336 2.6875L0.194336 17.3125C0.194336 17.959 0.472719 18.579 0.968245 19.0361C1.46377 19.4932 2.13585 19.75 2.83663 19.75H25.7365C26.4373 19.75 27.1093 19.4932 27.6049 19.0361C28.1004 18.579 28.3788 17.959 28.3788 17.3125V2.6875C28.3788 2.04103 28.1004 1.42105 27.6049 0.963927C27.1093 0.506807 26.4373 0.25 25.7365 0.25H2.83663Z" fill="#D8AC45"/>
<path d="M18.951 9.42474C19.0819 9.30439 19.2504 9.22504 19.4328 9.19791C19.6152 9.17079 19.8022 9.19727 19.9674 9.27361L26.6207 12.4375V18.125H1.95935V16.5L6.62035 12.6747C6.76432 12.5424 6.95348 12.4601 7.15575 12.4417C7.35801 12.4233 7.56093 12.4701 7.73011 12.574L12.4158 15.4551L18.951 9.42636V9.42474Z" fill="#D8AC45"/>
<path fill-rule="evenodd" clip-rule="evenodd" d="M8.12471 8.375C8.4717 8.375 8.81529 8.31195 9.13587 8.18946C9.45645 8.06696 9.74773 7.88742 9.99309 7.66107C10.2385 7.43473 10.4331 7.16602 10.5659 6.87029C10.6987 6.57456 10.767 6.2576 10.767 5.9375C10.767 5.6174 10.6987 5.30044 10.5659 5.00471C10.4331 4.70898 10.2385 4.44027 9.99309 4.21393C9.74773 3.98758 9.45645 3.80804 9.13587 3.68554C8.81529 3.56305 8.4717 3.5 8.12471 3.5C7.42393 3.5 6.75186 3.75681 6.25633 4.21393C5.7608 4.67105 5.48242 5.29103 5.48242 5.9375C5.48242 6.58397 5.7608 7.20395 6.25633 7.66107C6.75186 8.11819 7.42393 8.375 8.12471 8.375Z" fill="#D8AC45"/>
</svg>
