<svg width="60" height="60" viewBox="0 0 60 60" fill="none" xmlns="http://www.w3.org/2000/svg">
<path fill-rule="evenodd" clip-rule="evenodd" d="M46.875 57.5C46.875 57.5 50 57.5 50 53.3333C50 49.1667 46.875 36.6667 34.375 36.6667C21.875 36.6667 18.75 49.1667 18.75 53.3333C18.75 57.5 21.875 57.5 21.875 57.5H46.875ZM21.9437 53.3333H46.8062C46.8209 53.3311 46.8355 53.3283 46.85 53.325L46.875 53.3167C46.8687 52.2167 46.3531 49.025 44.5 46.15C42.775 43.4542 39.7437 40.8333 34.375 40.8333C29.0094 40.8333 25.9781 43.4583 24.25 46.15C22.3969 49.025 21.8781 52.2208 21.875 53.3167C21.8979 53.3225 21.9208 53.3281 21.9437 53.3333ZM34.375 28.3333C36.0326 28.3333 37.6223 27.4554 38.7944 25.8926C39.9665 24.3298 40.625 22.2101 40.625 20C40.625 17.7899 39.9665 15.6702 38.7944 14.1074C37.6223 12.5446 36.0326 11.6667 34.375 11.6667C32.7174 11.6667 31.1277 12.5446 29.9556 14.1074C28.7835 15.6702 28.125 17.7899 28.125 20C28.125 22.2101 28.7835 24.3298 29.9556 25.8926C31.1277 27.4554 32.7174 28.3333 34.375 28.3333ZM43.75 20C43.75 21.6415 43.5075 23.267 43.0364 24.7835C42.5652 26.3001 41.8747 27.6781 41.0041 28.8388C40.1336 29.9996 39.1001 30.9203 37.9627 31.5485C36.8252 32.1767 35.6061 32.5 34.375 32.5C33.1439 32.5 31.9248 32.1767 30.7873 31.5485C29.6499 30.9203 28.6164 29.9996 27.7459 28.8388C26.8753 27.6781 26.1848 26.3001 25.7136 24.7835C25.2425 23.267 25 21.6415 25 20C25 16.6848 25.9877 13.5054 27.7459 11.1612C29.504 8.81696 31.8886 7.5 34.375 7.5C36.8614 7.5 39.246 8.81696 41.0041 11.1612C42.7623 13.5054 43.75 16.6848 43.75 20ZM21.675 37.8333C20.4249 37.3085 19.1364 36.9635 17.8312 36.8042C17.0979 36.7112 16.3616 36.6653 15.625 36.6667C3.125 36.6667 0 49.1667 0 53.3333C0 56.1125 1.04063 57.5 3.125 57.5H16.3C15.8367 56.1992 15.6057 54.7731 15.625 53.3333C15.625 49.125 16.8031 44.825 19.0312 41.2333C19.7906 40.0083 20.675 38.8625 21.675 37.8333ZM15.375 40.8333C10.1625 40.9167 7.20312 43.5 5.5 46.15C3.63437 49.0417 3.125 52.2458 3.125 53.3333H12.5C12.5 48.9792 13.5094 44.6417 15.375 40.8333ZM4.6875 22.0833C4.6875 18.7681 5.67522 15.5887 7.43337 13.2445C9.19153 10.9003 11.5761 9.58333 14.0625 9.58333C16.5489 9.58333 18.9335 10.9003 20.6916 13.2445C22.4498 15.5887 23.4375 18.7681 23.4375 22.0833C23.4375 25.3985 22.4498 28.578 20.6916 30.9222C18.9335 33.2664 16.5489 34.5833 14.0625 34.5833C11.5761 34.5833 9.19153 33.2664 7.43337 30.9222C5.67522 28.578 4.6875 25.3985 4.6875 22.0833ZM14.0625 13.75C12.4049 13.75 10.8152 14.628 9.64308 16.1908C8.47098 17.7536 7.8125 19.8732 7.8125 22.0833C7.8125 24.2935 8.47098 26.4131 9.64308 27.9759C10.8152 29.5387 12.4049 30.4167 14.0625 30.4167C15.7201 30.4167 17.3098 29.5387 18.4819 27.9759C19.654 26.4131 20.3125 24.2935 20.3125 22.0833C20.3125 19.8732 19.654 17.7536 18.4819 16.1908C17.3098 14.628 15.7201 13.75 14.0625 13.75Z" fill="#D8AC45"/>
</svg>
