<svg width="12" height="13" viewBox="0 0 12 13" fill="none" xmlns="http://www.w3.org/2000/svg">
<path d="M12 2.75015C12 1.7164 11.1027 0.875153 10 0.875153C9.58778 0.876247 9.18604 0.997009 8.84999 1.22084C8.51395 1.44467 8.2601 1.76058 8.12333 2.12515H3.87667C3.7399 1.76058 3.48605 1.44467 3.15001 1.22084C2.81397 0.997009 2.41222 0.876247 2 0.875153C0.897333 0.875153 0 1.7164 0 2.75015C0 3.5639 0.559333 4.25078 1.33333 4.50953V8.49015C0.944566 8.61872 0.607737 8.85688 0.369028 9.17197C0.130319 9.48707 0.00141834 9.86367 0 10.2502C0 11.2839 0.897333 12.1252 2 12.1252C2.41222 12.1241 2.81397 12.0033 3.15001 11.7795C3.48605 11.5556 3.7399 11.2397 3.87667 10.8752H8.12267C8.25951 11.2397 8.51339 11.5555 8.84941 11.7794C9.18544 12.0032 9.58714 12.124 9.99933 12.1252C11.102 12.1252 11.9993 11.2839 11.9993 10.2502C11.9979 9.86367 11.869 9.48707 11.6303 9.17197C11.3916 8.85688 11.0548 8.61872 10.666 8.49015V4.51015C11.0549 4.38177 11.392 4.14367 11.6308 3.82855C11.8697 3.51343 11.9986 3.13673 12 2.75015ZM10 2.12515C10.132 2.12503 10.2612 2.16163 10.371 2.23033C10.4808 2.29903 10.5665 2.39673 10.6171 2.51107C10.6677 2.62542 10.6809 2.75126 10.6552 2.87268C10.6295 2.99409 10.5659 3.10563 10.4725 3.19316C10.3792 3.28069 10.2602 3.34029 10.1307 3.36441C10.0012 3.38853 9.86695 3.37609 9.74498 3.32866C9.62302 3.28123 9.5188 3.20095 9.44552 3.09797C9.37224 2.99499 9.3332 2.87394 9.33333 2.75015C9.33333 2.40578 9.632 2.12515 10 2.12515ZM8.12333 9.62515H3.87667C3.77755 9.36359 3.61753 9.12602 3.40823 8.92969C3.19893 8.73337 2.94561 8.58322 2.66667 8.49015V4.51015C2.94561 4.41709 3.19893 4.26694 3.40823 4.07061C3.61753 3.87428 3.77755 3.63671 3.87667 3.37515H8.12267C8.22194 3.63666 8.3821 3.87415 8.59151 4.07037C8.80093 4.26659 9.05434 4.41661 9.33333 4.50953V8.49015C9.05439 8.58322 8.80107 8.73337 8.59177 8.92969C8.38247 9.12602 8.22245 9.36359 8.12333 9.62515ZM2 2.12515C2.13204 2.12503 2.26116 2.16163 2.371 2.23033C2.48085 2.29903 2.56648 2.39673 2.61707 2.51107C2.66767 2.62542 2.68094 2.75126 2.65521 2.87268C2.62948 2.99409 2.56591 3.10563 2.47254 3.19316C2.37917 3.28069 2.26021 3.34029 2.13069 3.36441C2.00118 3.38853 1.86695 3.37609 1.74498 3.32866C1.62301 3.28123 1.5188 3.20095 1.44552 3.09797C1.37224 2.99499 1.3332 2.87394 1.33333 2.75015C1.33333 2.40578 1.632 2.12515 2 2.12515ZM2 10.8752C1.82835 10.868 1.66627 10.799 1.54752 10.6825C1.42876 10.5661 1.36249 10.4112 1.36249 10.2502C1.36249 10.0891 1.42876 9.93419 1.54752 9.81777C1.66627 9.70134 1.82835 9.63235 2 9.62515C2.17165 9.63235 2.33373 9.70134 2.45248 9.81777C2.57124 9.93419 2.63751 10.0891 2.63751 10.2502C2.63751 10.4112 2.57124 10.5661 2.45248 10.6825C2.33373 10.799 2.17165 10.868 2 10.8752ZM10 10.8752C9.82835 10.868 9.66627 10.799 9.54752 10.6825C9.42876 10.5661 9.36249 10.4112 9.36249 10.2502C9.36249 10.0891 9.42876 9.93419 9.54752 9.81777C9.66627 9.70134 9.82835 9.63235 10 9.62515C10.1717 9.63235 10.3337 9.70134 10.4525 9.81777C10.5712 9.93419 10.6375 10.0891 10.6375 10.2502C10.6375 10.4112 10.5712 10.5661 10.4525 10.6825C10.3337 10.799 10.1717 10.868 10 10.8752Z" fill="#D8AC45"/>
</svg>
